<?xml version="1.0" encoding="utf-8"?>
<!-- Generator: Adobe Illustrator 16.0.0, SVG Export Plug-In . SVG Version: 6.00 Build 0)  -->
<!DOCTYPE svg PUBLIC "-//W3C//DTD SVG 1.1//EN" "http://www.w3.org/Graphics/SVG/1.1/DTD/svg11.dtd">
<svg version="1.1" id="Layer_1" xmlns="http://www.w3.org/2000/svg" xmlns:xlink="http://www.w3.org/1999/xlink" x="0px" y="0px"
	 width="32px" height="24px" viewBox="0 0 32 24" style="enable-background:new 0 0 32 24;" xml:space="preserve">
<g>
	<path style="fill:#1880C4;" d="M31,1v15.3c0,1.9-0.7,3.5-2.1,4.7c-1.4,1.2-3.2,1.8-5.4,1.8c-2.7,0-4.7-1-6.1-3
		c-0.9,1.1-1.8,1.8-2.8,2.3c-1,0.5-2.2,0.7-3.7,0.7c-2.3,0-4.1-0.6-5.3-1.8c-1.2-1.2-1.9-2.9-1.9-5.2V1h7.7v13.8
		c0,0.7,0.1,1.1,0.2,1.3c0.1,0.2,0.4,0.3,0.8,0.3c0.8,0,1.1-0.5,1.1-1.6V1h7.7v13.8c0,0.7,0.1,1.1,0.2,1.3c0.1,0.2,0.4,0.3,0.8,0.3
		c0.8,0,1.1-0.6,1.1-1.7V1H31z"/>
	<path style="fill:#F8981C;" d="M11.2,1v14.3c0,2.2-0.7,3.9-2.2,5.3c-1.5,1.4-3.4,2.1-5.7,2.1c-0.7,0-1.5-0.1-2.3-0.3v-6.1
		c0.4,0.1,0.7,0.2,1,0.2c1,0,1.5-0.7,1.5-2V1H11.2z"/>
</g>
</svg>
